<svg width="84" height="66" viewBox="0 0 84 66" fill="none" xmlns="http://www.w3.org/2000/svg">
<path d="M46.2 18.5625H37.8V10.3125H46.2V18.5625ZM46.2 37.125H37.8V28.875H46.2V37.125ZM46.2 55.6875H37.8V47.4375H46.2V55.6875ZM84 24.75V8.25C84 3.67125 80.22 0 75.6 0H8.4C6.17218 0 4.03561 0.869194 2.4603 2.41637C0.884997 3.96354 0 6.06196 0 8.25V24.75C4.662 24.75 8.4 28.4625 8.4 33C8.4 35.188 7.515 37.2865 5.9397 38.8336C4.36439 40.3808 2.22782 41.25 0 41.25V57.75C0 59.938 0.884997 62.0365 2.4603 63.5836C4.03561 65.1308 6.17218 66 8.4 66H75.6C77.8278 66 79.9644 65.1308 81.5397 63.5836C83.115 62.0365 84 59.938 84 57.75V41.25C81.7722 41.25 79.6356 40.3808 78.0603 38.8336C76.485 37.2865 75.6 35.188 75.6 33C75.6 30.812 76.485 28.7135 78.0603 27.1664C79.6356 25.6192 81.7722 24.75 84 24.75Z" fill="#6C27FF"/>
</svg>
