<svg width="84" height="66" viewBox="0 0 84 66" fill="none" xmlns="http://www.w3.org/2000/svg">
<path d="M75.6 33C75.6 35.188 76.485 37.2865 78.0603 38.8336C79.6356 40.3808 81.7722 41.25 84 41.25V57.75C84 59.938 83.115 62.0365 81.5397 63.5836C79.9644 65.1308 77.8278 66 75.6 66H8.4C6.17218 66 4.03561 65.1308 2.4603 63.5836C0.884997 62.0365 0 59.938 0 57.75V41.25C4.662 41.25 8.4 37.5375 8.4 33C8.4 30.812 7.515 28.7135 5.9397 27.1664C4.36439 25.6192 2.22782 24.75 0 24.75V8.25C0 3.67125 3.78 0 8.4 0H75.6C77.8278 0 79.9644 0.869194 81.5397 2.41637C83.115 3.96354 84 6.06196 84 8.25V24.75C81.7722 24.75 79.6356 25.6192 78.0603 27.1664C76.485 28.7135 75.6 30.812 75.6 33ZM60.9 50.5312C60.9 44.3438 48.3 41.25 42 41.25C35.7 41.25 23.1 44.3438 23.1 50.5312V53.625H60.9V50.5312ZM42 34.0312C44.5063 34.0312 46.9099 33.0534 48.6822 31.3128C50.4544 29.5723 51.45 27.2115 51.45 24.75C51.45 22.2885 50.4544 19.9277 48.6822 18.1872C46.9099 16.4466 44.5063 15.4688 42 15.4688C39.4937 15.4688 37.0901 16.4466 35.3178 18.1872C33.5456 19.9277 32.55 22.2885 32.55 24.75C32.55 27.2115 33.5456 29.5723 35.3178 31.3128C37.0901 33.0534 39.4937 34.0312 42 34.0312Z" fill="#FF00A5"/>
</svg>
