<?xml version="1.0" encoding="UTF-8" standalone="no"?>
<!DOCTYPE svg PUBLIC "-//W3C//DTD SVG 1.1//EN" "http://www.w3.org/Graphics/SVG/1.1/DTD/svg11.dtd">
<!-- Created with Vectornator (http://vectornator.io/) -->
<svg height="100%" stroke-miterlimit="10" style="fill-rule:nonzero;clip-rule:evenodd;stroke-linecap:round;stroke-linejoin:round;" version="1.1" viewBox="0 0 104.895 104.895" width="100%" xml:space="preserve" xmlns="http://www.w3.org/2000/svg" xmlns:vectornator="http://vectornator.io" xmlns:xlink="http://www.w3.org/1999/xlink">
<defs/>
<g id="레이어-1" vectornator:layerName="레이어 1">
<g opacity="1">
<path d="M0.791818 52.4475C0.791818 23.9189 23.9189 0.791818 52.4475 0.791818C80.9761 0.791818 104.103 23.9189 104.103 52.4475C104.103 80.9761 80.9761 104.103 52.4475 104.103C23.9189 104.103 0.791818 80.9761 0.791818 52.4475Z" fill="#ffffff" fill-rule="nonzero" opacity="1" stroke="none"/>
<g opacity="1">
<path d="M3.78864 52.4475C3.78864 25.574 25.574 3.78864 52.4475 3.78864C79.321 3.78864 101.106 25.574 101.106 52.4475C101.106 79.321 79.321 101.106 52.4475 101.106C25.574 101.106 3.78864 79.321 3.78864 52.4475Z" fill="#021df3" fill-rule="nonzero" opacity="1" stroke="none"/>
<g opacity="1">
<path d="M7.50595 52.4475C7.50595 27.627 27.627 7.50595 52.4475 7.50595C77.268 7.50595 97.3891 27.627 97.3891 52.4475C97.3891 77.268 77.268 97.3891 52.4475 97.3891C27.627 97.3891 7.50595 77.268 7.50595 52.4475Z" fill="#ff00a5" fill-rule="nonzero" opacity="1" stroke="none"/>
<g opacity="1">
<clipPath id="ClipPath">
<path d="M97.5021 52.4475C97.5021 27.5645 77.3305 7.39285 52.4475 7.39285C27.5645 7.39285 7.39285 27.5645 7.39285 52.4475C7.39285 77.3305 27.5645 97.5021 52.4475 97.5021C77.3305 97.5021 97.5021 77.3305 97.5021 52.4475Z"/>
</clipPath>
<g clip-path="url(#ClipPath)">
<g opacity="1">
<path d="M32.9768 62.4208C32.9768 62.4208 28.6366 60.5988 26.2214 60.0983C26.2214 60.0983 21.0013 58.5376 19.5212 62.396C19.5212 62.396 17.1376 68.9103 19.0512 73.612C19.0512 73.612 19.863 76.2291 24.864 77.0597C24.864 77.0597 26.3113 77.5582 37.0169 78.3111" fill="#ffffff" fill-rule="nonzero" opacity="1" stroke="#021df3" stroke-linecap="butt" stroke-linejoin="round" stroke-width="2.38025"/>
<path d="M37.5282 74.1473C37.5282 74.1473 34.9734 84.9107 36.3031 96.4406C36.3031 96.4406 56.8486 106.11 70.2987 95.5044L60.6554 72.0172L37.5282 74.1473Z" fill="#ffffff" fill-rule="nonzero" opacity="1" stroke="#021df3" stroke-linecap="butt" stroke-linejoin="round" stroke-width="2.38025"/>
<g opacity="1">
<path d="M34.8909 74.7547C34.8909 74.7547 32.4212 75.229 30.9737 77.5964C30.9737 77.5964 36.7454 85.7653 43.9658 94.9371C43.9658 94.9371 45.8692 94.1119 47.272 92.5294C47.272 92.5294 41.0084 83.9832 34.8909 74.7547Z" fill="#ffffff" fill-rule="nonzero" opacity="1" stroke="#021df3" stroke-linecap="butt" stroke-linejoin="round" stroke-width="2.38025"/>
<path d="M43.5565 85.7874C43.5565 85.7874 41.2439 87.9239 39.2173 88.5688" fill="#ffffff" fill-rule="nonzero" opacity="1" stroke="#021df3" stroke-linecap="butt" stroke-linejoin="round" stroke-width="2.38025"/>
</g>
<path d="M61.5511 85.1572C61.5511 85.1572 52.5474 84.074 45.2138 83.8208C45.2138 83.8208 40.1748 83.3552 39.8998 87.4036C39.8998 87.4036 38.9304 94.7646 42.1315 99.1681" fill="#ffffff" fill-rule="nonzero" opacity="1" stroke="#021df3" stroke-linecap="butt" stroke-linejoin="round" stroke-width="2.38025"/>
<g opacity="1" className="light-stick">
<path d="M20.2343 46.6949C20.2343 46.6949 17.8326 45.9492 15.4401 47.3549C15.4401 47.3549 16.6802 57.2799 18.7253 68.7723C18.7253 68.7723 20.7929 68.9416 22.776 68.2071C22.776 68.2071 21.28 57.7175 20.2343 46.6949Z" fill="#ffffff" fill-rule="nonzero" opacity="1" stroke="#021df3" stroke-linecap="butt" stroke-linejoin="round" stroke-width="2.38025"/>
<path d="M22.5649 60.4808C22.5649 60.4808 19.6583 61.4298 17.567 61.0434" fill="#ffffff" fill-rule="nonzero" opacity="1" stroke="#021df3" stroke-linecap="butt" stroke-linejoin="round" stroke-width="2.38025"/>
</g>
<path d="M91.8332 84.2435C91.8332 84.2435 76.4025 90.713 53.3062 83.8803C53.3062 83.8803 27.4755 76.7427 27.4997 63.0562C27.4997 63.0562 27.2872 56.428 33.7904 53.994C33.7904 53.994 35.1715 49.8164 35.8619 47.7451C35.8619 47.7451 36.9045 42.934 43.5249 34.9531C43.5249 34.9531 98.3598 40.9601 102.677 48.1888C102.677 48.1888 106.227 70.4324 91.8332 84.2435Z" fill="#ffffff" fill-rule="nonzero" opacity="1" stroke="#021df3" stroke-linecap="butt" stroke-linejoin="round" stroke-width="2.38025"/>
<path d="M86.386 56.9529C86.386 56.9529 75.683 56.4082 66.5065 59.9276C66.5065 59.9276 77.1803 67.2756 81.4742 72.9901L84.6147 70.1267C84.6147 70.1267 79.1184 64.2339 72.1942 61.0993C72.1942 61.0993 80.5371 60.2779 87.6373 61.9591L86.386 56.9529Z" fill="#021df3" fill-rule="nonzero" opacity="1" stroke="none"/>
<path d="M102.874 46.7063C77.302 29.6483 46.8648 25.891 46.8648 25.891C47.3725 24.7278 48.1415 23.8706 48.1415 23.8706C47.215 23.156 43.6115 22.4233 43.6115 22.4233C29.3413 19.7962 27.1653 30.8918 27.1653 30.8918C24.2447 43.7153 35.9364 47.8445 35.9364 47.8445C37.943 41.9838 40.3271 39.0903 40.3271 39.0903C42.4877 39.9787 44.2093 38.5732 44.2093 38.5732C44.2093 38.5732 45.7545 40.525 49.4933 41.7807C49.4933 41.7807 56.1857 43.1713 56.6358 40.5501C56.6358 40.5501 57.7715 43.6268 61.9624 45.3153C61.9624 45.3153 66.8 46.9701 68.8184 46.0326C68.8184 46.0326 72.0207 51.0506 81.1807 49.4848C81.1807 49.4848 83.1541 55.3796 95.2789 54.0131L95.9006 61.0678C95.9006 61.0678 99.8283 67.0464 100.625 70.0381L103.184 64.7941" fill="#021df3" fill-rule="nonzero" opacity="1" stroke="#021df3" stroke-linecap="butt" stroke-linejoin="round" stroke-width="2.38025"/>
<path d="M40.499 44.5047" fill="none" opacity="1" stroke="#021df3" stroke-linecap="butt" stroke-linejoin="round" stroke-width="2.38025"/>
<path d="M77.5017 13.9798C77.5017 13.9798 58.9266 6.32385 48.3257 18.0345L54.1193 23.8357L98.7914 39.9762C98.7914 39.9762 95.3801 24.9303 77.5017 13.9798Z" fill="#021df3" fill-rule="nonzero" opacity="1" stroke="#021df3" stroke-linecap="butt" stroke-linejoin="round" stroke-width="2.38025"/>
<path d="M38.2753 48.595C37.9905 50.9564 39.4027 53.6125 39.4027 53.6125C39.4027 53.6125 40.8373 44.9727 49.3528 47.2028C49.3528 47.2028 55.9586 50.6744 56.3504 57.6332C56.3504 57.6332 59.7498 46.9606 49.8401 43.8599C44.712 41.9452 38.5602 46.2336 38.2753 48.595Z" fill="#021df3" fill-rule="nonzero" opacity="1" stroke="none"/>
<path d="M81.1358 49.477C81.1358 49.477 75.7738 45.4895 73.8002 39.0341" fill="none" opacity="1" stroke="#021df3" stroke-linecap="round" stroke-linejoin="round" stroke-width="2.38025"/>
<path d="M53.6973 84.2663C53.6973 84.2663 58.3467 90.5332 55.2573 99.8424C55.2573 99.8424 77.0164 102.561 92.1369 84.4042C92.1369 84.4042 77.8026 90.2953 53.6973 84.2663Z" fill="#ffffff" fill-rule="nonzero" opacity="1" stroke="#021df3" stroke-linecap="butt" stroke-linejoin="round" stroke-width="2.38025"/>
<path d="M64.1844 35.2637C64.1844 35.2637 61.8413 39.8831 68.7088 46.0902" fill="none" opacity="1" stroke="#021df3" stroke-linecap="round" stroke-linejoin="round" stroke-width="2.38025"/>
<path d="M55.0079 32.3237C55.0079 32.3237 52.9321 35.497 55.8418 40.9717" fill="none" opacity="1" stroke="#021df3" stroke-linecap="round" stroke-linejoin="round" stroke-width="2.38025"/>
<path d="M99.5331 35.7036C99.5331 35.7036 75.2797 20.7977 48.3639 18.145C48.3639 18.145 45.0997 21.064 43.1445 25.5561C43.1445 25.5561 71.6945 29.0519 102.8 47.6223C102.8 47.6223 102.399 40.14 99.5331 35.7036Z" fill="#ffffff" fill-rule="nonzero" opacity="1" stroke="#021df3" stroke-linecap="butt" stroke-linejoin="round" stroke-width="2.38025"/>
<path d="M68.3402 71.6794C68.3402 71.6794 72.1213 83.3193 55.2746 77.7984C55.2746 77.7984 43.4059 73.1213 51.6388 66.0683C51.6388 66.0683 57.5165 69.8961 68.3402 71.6794Z" fill="#ff00a5" fill-rule="nonzero" opacity="1" stroke="#021df3" stroke-linecap="butt" stroke-linejoin="round" stroke-width="2.38025"/>
<path d="M32.0144 72.8861C32.0144 72.8861 31.3458 76.0657 30.3803 77.26" fill="none" opacity="1" stroke="#021df3" stroke-linecap="butt" stroke-linejoin="round" stroke-width="2.38025"/>
<path d="M44.6659 38.9086C44.6659 38.9086 40.8792 35.5227 42.9113 30.584" fill="none" opacity="1" stroke="#021df3" stroke-linecap="round" stroke-linejoin="round" stroke-width="2.38025"/>
<g opacity="1">
<path d="M38.75 27.3438C38.0255 27.6313 37.4019 28.0316 36.8438 28.5312C37.4565 28.0871 38.0027 27.5575 38.75 27.3438ZM36.8438 28.5312C33.6134 30.8729 32.2751 35.7965 34.8125 39.0938C36.858 41.7518 40.6507 42.5718 43.8438 42.2812C44.4359 42.2283 44.8655 41.7172 44.8125 41.125C44.7595 40.5328 44.2484 40.1033 43.6562 40.1562C41.252 40.3606 37.6439 39.9498 35.9062 38.1562C34.8934 37.1108 34.4557 35.7109 34.4062 34.2812C34.3324 32.1454 35.2372 29.9695 36.8438 28.5312Z" fill="#ffffff" stroke="none"/>
</g>
<g opacity="1">
<path d="M60.0625 33.7812C56.1365 34.8673 53.6684 39.5764 55.2812 43.375C56.414 46.0428 59.0321 47.8866 61.75 48.6875C62.32 48.8566 62.9246 48.5387 63.0938 47.9688C63.2629 47.3988 62.9137 46.7941 62.3438 46.625C60.2868 46.0066 57.6814 44.6147 56.5625 42.75C54.6312 39.5313 56.7475 35.1311 60.0625 33.7812Z" fill="#ffffff" stroke="none"/>
</g>
<g opacity="1">
<path d="M84.1875 41.9688C80.2615 43.0548 77.8246 47.7952 79.4375 51.5938C80.5702 54.2615 83.1571 56.1053 85.875 56.9062C86.445 57.0754 87.0497 56.7575 87.2188 56.1875C87.3879 55.6175 87.07 55.0128 86.5 54.8438C84.4431 54.2253 81.8064 52.8335 80.6875 50.9688C78.7562 47.7501 80.8725 43.3186 84.1875 41.9688Z" fill="#ffffff" stroke="none"/>
</g>
<path d="M55.5234 55.5272C55.5234 55.5272 54.925 63.7584 46.8196 61.1507C46.8196 61.1507 40.5431 59.5861 44.3138 50.9076C44.3138 50.9076 45.9974 46.2415 51.7903 47.2608C51.7903 47.2608 55.294 46.3705 55.5234 55.5272Z" fill="#021df3" fill-rule="nonzero" opacity="1" stroke="#021df3" stroke-linecap="butt" stroke-linejoin="round" stroke-width="2.38025"/>
</g>
</g>
</g>
<path d="M51.2194 49.0922C51.0645 53.1215 51.4825 53.9693 53.3124 56.0426C50.5248 55.8141 49.3046 56.4871 46.8443 59.8578C47.6527 55.733 46.9413 54.3706 44.8604 52.639C47.6661 52.4791 49.0718 52.2537 51.2194 49.0922Z" fill="#ffffff" fill-rule="nonzero" opacity="1" stroke="none"/>
</g>
</g>
</g>
</g>
</svg>
