<svg width="450" height="200" viewBox="0 0 450 200" fill="none" xmlns="http://www.w3.org/2000/svg">
<rect width="450" height="200" fill="#6C27FF"/>
<path d="M27.6211 99.6615C27.6211 71.1329 50.7481 48.0059 79.2768 48.0059C107.805 48.0059 130.933 71.1329 130.933 99.6615C130.933 128.19 107.805 151.318 79.2768 151.318C50.7481 151.318 27.6211 128.19 27.6211 99.6615Z" fill="white"/>
<path d="M30.6172 99.6618C30.6172 72.7882 52.4025 51.0029 79.2761 51.0029C106.15 51.0029 127.935 72.7882 127.935 99.6618C127.935 126.535 106.15 148.321 79.2761 148.321C52.4025 148.321 30.6172 126.535 30.6172 99.6618Z" fill="#021DF3"/>
<path d="M34.334 99.6623C34.334 74.8418 54.4551 54.7207 79.2756 54.7207C104.096 54.7207 124.217 74.8418 124.217 99.6623C124.217 124.483 104.096 144.604 79.2756 144.604C54.4551 144.604 34.334 124.483 34.334 99.6623Z" fill="#FF00A5"/>
<mask id="mask0_778_1877" style="mask-type:luminance" maskUnits="userSpaceOnUse" x="34" y="54" width="91" height="91">
<path d="M124.33 99.6621C124.33 74.7791 104.158 54.6074 79.2754 54.6074C54.3924 54.6074 34.2207 74.7791 34.2207 99.6621C34.2207 124.545 54.3924 144.717 79.2754 144.717C104.158 144.717 124.33 124.545 124.33 99.6621Z" fill="white"/>
</mask>
<g mask="url(#mask0_778_1877)">
<path d="M59.8039 109.636C59.8039 109.636 55.4638 107.814 53.0486 107.313C53.0486 107.313 47.8285 105.752 46.3484 109.611C46.3484 109.611 43.9648 116.125 45.8784 120.827C45.8784 120.827 46.6902 123.444 51.6912 124.275C51.6912 124.275 53.1385 124.773 63.8441 125.526" fill="white"/>
<path d="M59.8039 109.636C59.8039 109.636 55.4638 107.814 53.0486 107.313C53.0486 107.313 47.8285 105.752 46.3484 109.611C46.3484 109.611 43.9648 116.125 45.8784 120.827C45.8784 120.827 46.6902 123.444 51.6912 124.275C51.6912 124.275 53.1385 124.773 63.8441 125.526" stroke="#021DF3" stroke-width="2.38025" stroke-miterlimit="10" stroke-linejoin="round"/>
<path d="M64.3547 121.362C64.3547 121.362 61.7999 132.125 63.1296 143.655C63.1296 143.655 83.6751 153.324 97.1252 142.719L87.4819 119.231L64.3547 121.362Z" fill="white" stroke="#021DF3" stroke-width="2.38025" stroke-miterlimit="10" stroke-linejoin="round"/>
<path d="M61.7179 121.97C61.7179 121.97 59.2483 122.444 57.8008 124.811C57.8008 124.811 63.5725 132.98 70.7929 142.152C70.7929 142.152 72.6963 141.327 74.0991 139.744C74.0991 139.744 67.8355 131.198 61.7179 121.97Z" fill="white" stroke="#021DF3" stroke-width="2.38025" stroke-miterlimit="10" stroke-linejoin="round"/>
<path d="M70.3841 133.002C70.3841 133.002 68.0715 135.138 66.0449 135.783Z" fill="white"/>
<path d="M70.3841 133.002C70.3841 133.002 68.0715 135.138 66.0449 135.783" stroke="#021DF3" stroke-width="2.38025" stroke-miterlimit="10" stroke-linejoin="round"/>
<path d="M88.3791 132.372C88.3791 132.372 79.3754 131.289 72.0418 131.036C72.0418 131.036 67.0028 130.57 66.7278 134.619C66.7278 134.619 65.7584 141.98 68.9595 146.383" fill="white"/>
<path d="M88.3791 132.372C88.3791 132.372 79.3754 131.289 72.0418 131.036C72.0418 131.036 67.0028 130.57 66.7278 134.619C66.7278 134.619 65.7584 141.98 68.9595 146.383" stroke="#021DF3" stroke-width="2.38025" stroke-miterlimit="10" stroke-linejoin="round"/>
<path d="M47.0618 93.9095C47.0618 93.9095 44.6601 93.1638 42.2676 94.5695C42.2676 94.5695 43.5077 104.495 45.5528 115.987C45.5528 115.987 47.6204 116.156 49.6035 115.422C49.6035 115.422 48.1075 104.932 47.0618 93.9095Z" fill="white" stroke="#021DF3" stroke-width="2.38025" stroke-miterlimit="10" stroke-linejoin="round"/>
<path d="M49.3923 107.695C49.3923 107.695 46.4858 108.644 44.3945 108.258Z" fill="white"/>
<path d="M49.3923 107.695C49.3923 107.695 46.4858 108.644 44.3945 108.258" stroke="#021DF3" stroke-width="2.38025" stroke-miterlimit="10" stroke-linejoin="round"/>
<path d="M118.66 131.458C118.66 131.458 103.23 137.928 80.1335 131.095C80.1335 131.095 54.3028 123.958 54.327 110.271C54.327 110.271 54.1145 103.643 60.6177 101.209C60.6177 101.209 61.9988 97.0313 62.6892 94.96C62.6892 94.96 63.7318 90.1489 70.3522 82.168C70.3522 82.168 125.187 88.175 129.504 95.4037C129.504 95.4037 133.054 117.647 118.66 131.458Z" fill="white" stroke="#021DF3" stroke-width="2.38025" stroke-miterlimit="10" stroke-linejoin="round"/>
<path d="M113.213 104.167C113.213 104.167 102.51 103.622 93.334 107.142C93.334 107.142 104.008 114.49 108.302 120.204L111.442 117.341C111.442 117.341 105.946 111.448 99.0216 108.314C99.0216 108.314 107.364 107.492 114.465 109.173L113.213 104.167Z" fill="#021DF3"/>
<path d="M129.7 93.9208C104.129 76.8628 73.6914 73.1055 73.6914 73.1055C74.1991 71.9423 74.9681 71.0851 74.9681 71.0851C74.0416 70.3705 70.4381 69.6378 70.4381 69.6378C56.1679 67.0107 53.9919 78.1063 53.9919 78.1063C51.0713 90.9298 62.763 95.059 62.763 95.059C64.7696 89.1983 67.1536 86.3048 67.1536 86.3048C69.3143 87.1932 71.0359 85.7877 71.0359 85.7877C71.0359 85.7877 72.5811 87.7395 76.3199 88.9952C76.3199 88.9952 83.0123 90.3858 83.4624 87.7646C83.4624 87.7646 84.5981 90.8413 88.789 92.5298C88.789 92.5298 93.6266 94.1846 95.645 93.2471C95.645 93.2471 98.8473 98.2651 108.007 96.6993C108.007 96.6993 109.981 102.594 122.105 101.228L122.727 108.282C122.727 108.282 126.655 114.261 127.452 117.253L130.011 112.009" fill="#021DF3"/>
<path d="M129.7 93.9208C104.129 76.8628 73.6914 73.1055 73.6914 73.1055C74.1991 71.9423 74.9681 71.0851 74.9681 71.0851C74.0416 70.3705 70.4381 69.6378 70.4381 69.6378C56.1679 67.0107 53.9919 78.1063 53.9919 78.1063C51.0713 90.9298 62.763 95.059 62.763 95.059C64.7696 89.1983 67.1536 86.3048 67.1536 86.3048C69.3143 87.1932 71.0359 85.7877 71.0359 85.7877C71.0359 85.7877 72.5811 87.7395 76.3199 88.9952C76.3199 88.9952 83.0123 90.3858 83.4624 87.7646C83.4624 87.7646 84.5981 90.8413 88.789 92.5298C88.789 92.5298 93.6266 94.1846 95.645 93.2471C95.645 93.2471 98.8473 98.2651 108.007 96.6993C108.007 96.6993 109.981 102.594 122.105 101.228L122.727 108.282C122.727 108.282 126.655 114.261 127.452 117.253L130.011 112.009" stroke="#021DF3" stroke-width="2.38025" stroke-miterlimit="10" stroke-linejoin="round"/>
<path d="M104.328 61.1945C104.328 61.1945 85.7532 53.5385 75.1523 65.2492L80.9459 71.0504L125.618 87.1909C125.618 87.1909 122.207 72.145 104.328 61.1945Z" fill="#021DF3" stroke="#021DF3" stroke-width="2.38025" stroke-miterlimit="10" stroke-linejoin="round"/>
<path d="M65.1024 95.8097C64.8175 98.1711 66.2298 100.827 66.2298 100.827C66.2298 100.827 67.6644 92.1874 76.1799 94.4175C76.1799 94.4175 82.7856 97.8891 83.1775 104.848C83.1775 104.848 86.5769 94.1753 76.6671 91.0746C71.5391 89.1599 65.3873 93.4483 65.1024 95.8097Z" fill="#021DF3"/>
<path d="M107.963 96.6919C107.963 96.6919 102.601 92.7044 100.627 86.249" stroke="#021DF3" stroke-width="2.38025" stroke-miterlimit="10" stroke-linecap="round" stroke-linejoin="round"/>
<path d="M80.5254 131.48C80.5254 131.48 85.1747 137.747 82.0854 147.057C82.0854 147.057 103.844 149.776 118.965 131.618C118.965 131.618 104.631 137.509 80.5254 131.48Z" fill="white" stroke="#021DF3" stroke-width="2.38025" stroke-miterlimit="10" stroke-linejoin="round"/>
<path d="M91.0124 82.4785C91.0124 82.4785 88.6693 87.0979 95.5368 93.305" stroke="#021DF3" stroke-width="2.38025" stroke-miterlimit="10" stroke-linecap="round" stroke-linejoin="round"/>
<path d="M81.8347 79.5381C81.8347 79.5381 79.7589 82.7114 82.6686 88.1861" stroke="#021DF3" stroke-width="2.38025" stroke-miterlimit="10" stroke-linecap="round" stroke-linejoin="round"/>
<path d="M126.362 82.918C126.362 82.918 102.108 68.0121 75.192 65.3594C75.192 65.3594 71.9279 68.2784 69.9727 72.7705C69.9727 72.7705 98.5227 76.2663 129.629 94.8367C129.629 94.8367 129.228 87.3544 126.362 82.918Z" fill="white" stroke="#021DF3" stroke-width="2.38025" stroke-miterlimit="10" stroke-linejoin="round"/>
<path d="M95.1671 118.894C95.1671 118.894 98.9483 130.534 82.1016 125.013C82.1016 125.013 70.2329 120.336 78.4658 113.283C78.4658 113.283 84.3434 117.111 95.1671 118.894Z" fill="#FF00A5" stroke="#021DF3" stroke-width="2.38025" stroke-miterlimit="10" stroke-linejoin="round"/>
<path d="M58.8411 120.101C58.8411 120.101 58.1725 123.28 57.207 124.474" stroke="#021DF3" stroke-width="2.38025" stroke-miterlimit="10" stroke-linejoin="round"/>
<path d="M71.4927 86.1234C71.4927 86.1234 67.706 82.7375 69.7381 77.7988" stroke="#021DF3" stroke-width="2.38025" stroke-miterlimit="10" stroke-linecap="round" stroke-linejoin="round"/>
<path d="M63.717 75.6875C60.4437 78.0101 59.1021 82.9646 61.6544 86.2812C63.7 88.9393 67.4614 89.7905 70.6544 89.5C71.2466 89.447 71.6762 88.9359 71.6232 88.3438C71.5702 87.7516 71.0591 87.2908 70.467 87.3438C68.0627 87.5481 64.4546 87.1685 62.717 85.375C61.7041 84.3295 61.2977 82.9297 61.2482 81.5C61.1735 79.3417 62.078 77.125 63.717 75.6875Z" fill="white"/>
<path d="M86.9048 81C82.9788 82.086 80.5108 86.7952 82.1236 90.5938C83.2563 93.2615 85.8432 95.1053 88.5611 95.9062C89.1311 96.0754 89.7358 95.7575 89.9048 95.1875C90.074 94.6175 89.7561 94.0129 89.1861 93.8438C87.1292 93.2253 84.4925 91.8335 83.3736 89.9688C81.4423 86.7501 83.5898 82.3499 86.9048 81Z" fill="white"/>
<path d="M111.03 89.1875C107.104 90.2735 104.636 94.9827 106.249 98.7812C107.381 101.449 109.968 103.324 112.686 104.125C113.256 104.294 113.861 103.945 114.03 103.375C114.199 102.805 113.881 102.232 113.311 102.062C111.254 101.444 108.617 100.021 107.499 98.1562C105.567 94.9376 107.715 90.5374 111.03 89.1875Z" fill="white"/>
<path d="M82.3511 102.742C82.3511 102.742 81.7527 110.973 73.6473 108.366C73.6473 108.366 67.3708 106.801 71.1415 98.1225C71.1415 98.1225 72.825 93.4564 78.618 94.4757C78.618 94.4757 82.1217 93.5854 82.3511 102.742Z" fill="#021DF3" stroke="#021DF3" stroke-width="2.38025" stroke-miterlimit="10" stroke-linejoin="round"/>
</g>
<path d="M78.0465 96.3066C77.8916 100.336 78.3096 101.184 80.1395 103.257C77.3519 103.029 76.1317 103.702 73.6714 107.072C74.4797 102.947 73.7684 101.585 71.6875 99.8534C74.4931 99.6935 75.8989 99.4681 78.0465 96.3066Z" fill="white"/>
<path d="M241.823 76.3849V67.5904C241.823 66.4095 240.866 65.4521 239.685 65.4521H233.093C231.912 65.4521 230.955 66.4095 230.955 67.5904V103.958C230.955 105.139 231.912 106.096 233.093 106.096H239.685C240.866 106.096 241.823 105.139 241.823 103.958V86.9318H246.116C247.297 86.9318 248.254 85.9744 248.254 84.7935V78.5232C248.254 77.3423 247.297 76.3849 246.116 76.3849H241.823ZM223.945 74.9058V69.6194C223.945 67.6731 222.367 66.0952 220.421 66.0952H191.211V75.4845H212.883V76.7064C212.883 84.1021 204.009 88.7325 191.211 88.8611V98.4434C210.054 98.4434 223.945 90.8547 223.945 74.9058ZM204.394 101.337H193.333V107.048C193.333 114.407 199.299 120.373 206.658 120.373H239.345C241.14 120.373 242.595 118.918 242.595 117.123V113.848C242.595 112.053 241.14 110.598 239.345 110.598H208.099C206.053 110.598 204.394 108.94 204.394 106.894V101.337Z" fill="white"/>
<path d="M303.515 85.517H299.223V67.5904C299.223 66.4095 298.265 65.4521 297.084 65.4521H290.493C289.312 65.4521 288.354 66.4095 288.354 67.5904V118.235C288.354 119.416 289.312 120.373 290.493 120.373H297.084C298.265 120.373 299.223 119.416 299.223 118.235V96.0639H303.515C304.696 96.0639 305.654 95.1065 305.654 93.9256V87.6553C305.654 86.4743 304.696 85.517 303.515 85.517Z" fill="white"/>
<path d="M352.576 65.4521H349.316C347.215 65.4521 345.512 67.1552 345.512 69.2561V116.569C345.512 118.67 347.215 120.373 349.316 120.373H352.576C354.677 120.373 356.38 118.67 356.38 116.569V69.2561C356.38 67.1552 354.677 65.4521 352.576 65.4521Z" fill="white"/>
<path d="M392.057 86.9961V84.488H409.149C410.578 84.488 411.736 83.3296 411.736 81.9006V79.2938C411.736 77.8648 410.578 76.7064 409.149 76.7064H373.022V73.2337H408.506C409.935 73.2337 411.093 72.0753 411.093 70.6463V68.0395C411.093 66.6105 409.935 65.4521 408.506 65.4521H364.805C363.376 65.4521 362.217 66.6105 362.217 68.0395V81.9006C362.217 83.3296 363.376 84.488 364.805 84.488H381.253V86.9961H361.461C360.032 86.9961 358.873 88.1545 358.873 89.5835V92.3189C358.873 93.7479 360.032 94.9063 361.461 94.9063H411.85C413.279 94.9063 414.437 93.7479 414.437 92.3189V89.5835C414.437 88.1545 413.279 86.9961 411.85 86.9961H392.057ZM372.764 111.498H408.955C410.207 111.498 411.222 110.484 411.222 109.232V99.2309C411.222 97.979 410.207 96.9642 408.955 96.9642H364.291C363.039 96.9642 362.024 97.979 362.024 99.2309V101.515C362.024 102.766 363.039 103.781 364.291 103.781H400.611V105.775H364.42C363.168 105.775 362.153 106.79 362.153 108.041V118.107C362.153 119.358 363.168 120.373 364.42 120.373H409.534C410.786 120.373 411.801 119.358 411.801 118.107V115.759C411.801 114.507 410.786 113.492 409.534 113.492H372.764V111.498Z" fill="white"/>
<mask id="mask1_778_1877" style="mask-type:luminance" maskUnits="userSpaceOnUse" x="251" y="66" width="35" height="54">
<path d="M285.692 66.3232H251.129V119.488H285.692V66.3232Z" fill="black"/>
<path d="M268.41 66.3232C277.955 66.3232 285.692 74.0604 285.692 83.6048V102.206C285.692 111.751 277.955 119.488 268.41 119.488C258.866 119.488 251.129 111.751 251.129 102.206V83.6048C251.129 74.0604 258.866 66.3232 268.41 66.3232Z" fill="white"/>
</mask>
<g mask="url(#mask1_778_1877)">
<path d="M268.41 66.3232C277.955 66.3232 285.692 74.0604 285.692 83.6048V102.206C285.692 111.751 277.955 119.488 268.41 119.488C258.866 119.488 251.129 111.751 251.129 102.206V83.6048C251.129 74.0604 258.866 66.3232 268.41 66.3232Z" stroke="white" stroke-width="22.33" stroke-miterlimit="10" stroke-linejoin="round"/>
</g>
<mask id="mask2_778_1877" style="mask-type:luminance" maskUnits="userSpaceOnUse" x="308" y="66" width="35" height="54">
<path d="M342.858 66.3232H308.295V119.488H342.858V66.3232Z" fill="black"/>
<path d="M325.577 66.3232C335.121 66.3232 342.858 74.0604 342.858 83.6048V102.206C342.858 111.751 335.121 119.488 325.577 119.488C316.032 119.488 308.295 111.751 308.295 102.206V83.6048C308.295 74.0604 316.032 66.3232 325.577 66.3232Z" fill="white"/>
</mask>
<g mask="url(#mask2_778_1877)">
<path d="M325.577 66.3232C335.121 66.3232 342.858 74.0604 342.858 83.6048V102.206C342.858 111.751 335.121 119.488 325.577 119.488C316.032 119.488 308.295 111.751 308.295 102.206V83.6048C308.295 74.0604 316.032 66.3232 325.577 66.3232Z" stroke="white" stroke-width="22.33" stroke-miterlimit="10" stroke-linejoin="round"/>
</g>
<path d="M260.029 131.001H258.871L257.701 133.311L256.525 131.001H255.277L257.107 134.355V135.891H258.199V134.355L260.029 131.001Z" fill="white"/>
<path d="M269.539 135.891H273.229V134.943H270.631V133.893H272.965V132.945H270.631V131.949H273.175V131.001H269.539V135.891Z" fill="white"/>
<path d="M285.314 136.011C286.832 136.011 287.954 134.925 287.954 133.443C287.954 131.961 286.832 130.875 285.314 130.875C283.796 130.875 282.674 131.961 282.674 133.443C282.674 134.925 283.796 136.011 285.314 136.011ZM285.314 135.027C284.426 135.027 283.766 134.361 283.766 133.443C283.766 132.519 284.426 131.859 285.314 131.859C286.202 131.859 286.862 132.519 286.862 133.443C286.862 134.361 286.202 135.027 285.314 135.027Z" fill="white"/>
<path d="M297.602 135.891H298.694V132.891L301.136 135.831H302.048V130.941H300.956V133.941L298.514 131.001H297.602V135.891Z" fill="white"/>
<path d="M314.311 130.875C312.805 130.875 311.695 131.961 311.695 133.443C311.695 134.925 312.805 136.011 314.311 136.011C315.793 136.011 316.903 134.925 316.903 133.443V133.155H314.245V134.079H315.739C315.625 134.559 315.097 135.027 314.335 135.027C313.447 135.027 312.787 134.361 312.787 133.443C312.787 132.531 313.447 131.877 314.335 131.877C314.929 131.877 315.391 132.153 315.595 132.513H316.795C316.513 131.595 315.589 130.875 314.311 130.875Z" fill="white"/>
<path d="M329.647 135.891H330.865L328.969 131.001H327.835L325.939 135.891H327.067L327.409 134.943H329.305L329.647 135.891ZM327.745 133.995L328.357 132.291L328.969 133.995H327.745Z" fill="white"/>
<path d="M340.357 135.891H341.449V132.891L343.891 135.831H344.803V130.941H343.711V133.941L341.269 131.001H340.357V135.891Z" fill="white"/>
<path d="M365.348 131.001V135.891H366.44V131.001H365.348Z" fill="white"/>
<path d="M376.303 135.891H378.199C379.819 135.891 380.821 134.895 380.821 133.449C380.821 132.003 379.819 131.001 378.199 131.001H376.303V135.891ZM377.395 134.925V131.967H378.217C379.153 131.967 379.729 132.507 379.729 133.449C379.729 134.391 379.153 134.925 378.217 134.925H377.395Z" fill="white"/>
<path d="M392.9 136.011C394.418 136.011 395.54 134.925 395.54 133.443C395.54 131.961 394.418 130.875 392.9 130.875C391.382 130.875 390.26 131.961 390.26 133.443C390.26 134.925 391.382 136.011 392.9 136.011ZM392.9 135.027C392.012 135.027 391.352 134.361 391.352 133.443C391.352 132.519 392.012 131.859 392.9 131.859C393.788 131.859 394.448 132.519 394.448 133.443C394.448 134.361 393.788 135.027 392.9 135.027Z" fill="white"/>
<path d="M405.188 131.001V135.891H408.721V134.925H406.279V131.001H405.188Z" fill="white"/>
<path d="M138.215 132.143H242V136.351H138.215V132.143Z" fill="white"/>
<path d="M178.461 65.4463C177.349 65.4463 176.43 66.3652 176.43 67.4775V69.6963H169.742L170.399 79.29H176.43V84.4775H170.399L169.742 94.0713H176.43V102.602C176.43 104.563 178.032 106.165 179.992 106.165H183.555C185.515 106.165 187.117 104.563 187.117 102.602V67.4775C187.117 66.3652 186.198 65.4462 185.086 65.4463H178.461ZM151.024 65.5088C140.477 65.5088 133.367 72.0737 133.367 81.9775C133.367 91.9456 140.477 98.4463 151.024 98.4463C161.57 98.4463 168.711 91.9456 168.711 81.9775C168.711 72.0737 161.571 65.5088 151.024 65.5088ZM151.242 66.54C151.393 71.9149 153.24 75.6561 156.149 78.04C158.793 80.2076 162.327 81.244 166.305 81.3525C157.737 81.5806 151.242 86.2147 151.242 97.0088C151.242 86.2147 144.707 81.6744 136.211 81.4463C144.491 81.2182 150.882 76.802 151.242 66.54ZM138.617 101.134V106.915C138.617 114.349 144.652 120.384 152.086 120.384H184.649C186.432 120.384 187.899 118.917 187.899 117.134V113.884C187.899 112.1 186.432 110.665 184.649 110.665H153.492C151.39 110.665 149.68 108.955 149.68 106.852V101.134H138.617Z" fill="white"/>
</svg>
