<?xml version="1.0" encoding="UTF-8" standalone="no"?>
<!DOCTYPE svg PUBLIC "-//W3C//DTD SVG 1.1//EN" "http://www.w3.org/Graphics/SVG/1.1/DTD/svg11.dtd">
<!-- Created with Vectornator (http://vectornator.io/) -->
<svg height="100%" stroke-miterlimit="10" style="fill-rule:nonzero;clip-rule:evenodd;stroke-linecap:round;stroke-linejoin:round;" version="1.1" viewBox="0 0 397.958 107.324" width="100%" xml:space="preserve" xmlns="http://www.w3.org/2000/svg" xmlns:vectornator="http://vectornator.io" xmlns:xlink="http://www.w3.org/1999/xlink">
<defs>
<path d="M242.409 20.3233L242.409 20.3233C251.954 20.3233 259.691 28.0605 259.691 37.6049L259.691 56.2064C259.691 65.7508 251.954 73.488 242.409 73.488L242.409 73.488C232.865 73.488 225.128 65.7508 225.128 56.2064L225.128 37.6049C225.128 28.0605 232.865 20.3233 242.409 20.3233Z" id="Fill"/>
<path d="M299.576 20.3233L299.576 20.3233C309.12 20.3233 316.857 28.0605 316.857 37.6049L316.857 56.2064C316.857 65.7508 309.12 73.488 299.576 73.488L299.576 73.488C290.031 73.488 282.294 65.7508 282.294 56.2064L282.294 37.6049C282.294 28.0605 290.031 20.3233 299.576 20.3233Z" id="Fill_2"/>
</defs>
<g id="레이어-1" vectornator:layerName="레이어 1">
<path d="M1.62041 53.6619C1.62041 25.1333 24.7474 2.00621 53.2761 2.00621C81.8047 2.00621 104.932 25.1333 104.932 53.6619C104.932 82.1905 81.8047 105.318 53.2761 105.318C24.7474 105.318 1.62041 82.1905 1.62041 53.6619Z" fill="#ffffff" fill-rule="nonzero" opacity="1" stroke="none"/>
<g opacity="1">
<g opacity="1">
<path d="M4.61722 53.6619C4.61722 26.7883 26.4025 5.00303 53.2761 5.00303C80.1496 5.00303 101.935 26.7883 101.935 53.6619C101.935 80.5354 80.1496 102.321 53.2761 102.321C26.4025 102.321 4.61722 80.5354 4.61722 53.6619Z" fill="#021df3" fill-rule="nonzero" opacity="1" stroke="none"/>
<g opacity="1">
<path d="M8.33453 53.6619C8.33453 28.8414 28.4556 8.72034 53.2761 8.72034C78.0966 8.72034 98.2176 28.8414 98.2176 53.6619C98.2176 78.4824 78.0966 98.6035 53.2761 98.6035C28.4556 98.6035 8.33453 78.4824 8.33453 53.6619Z" fill="#ff00a5" fill-rule="nonzero" opacity="1" stroke="none"/>
<g opacity="1">
<clipPath id="ClipPath">
<path d="M98.3307 53.6619C98.3307 28.7789 78.1591 8.60725 53.2761 8.60725C28.3931 8.60725 8.22144 28.7789 8.22144 53.6619C8.22144 78.5449 28.3931 98.7165 53.2761 98.7165C78.1591 98.7165 98.3307 78.5449 98.3307 53.6619Z"/>
</clipPath>
<g clip-path="url(#ClipPath)">
<g opacity="1">
<path d="M33.8053 63.6352C33.8053 63.6352 29.4652 61.8132 27.05 61.3127C27.05 61.3127 21.8299 59.752 20.3498 63.6104C20.3498 63.6104 17.9662 70.1247 19.8798 74.8264C19.8798 74.8264 20.6916 77.4435 25.6926 78.2741C25.6926 78.2741 27.1399 78.7726 37.8455 79.5254" fill="#ffffff" fill-rule="nonzero" opacity="1" stroke="#021df3" stroke-linecap="butt" stroke-linejoin="round" stroke-width="2.38025"/>
<path d="M38.3568 75.3617C38.3568 75.3617 35.802 86.1251 37.1317 97.655C37.1317 97.655 57.6772 107.324 71.1273 96.7188L61.484 73.2316L38.3568 75.3617Z" fill="#ffffff" fill-rule="nonzero" opacity="1" stroke="#021df3" stroke-linecap="butt" stroke-linejoin="round" stroke-width="2.38025"/>
<g opacity="1">
<path d="M35.7194 75.9691C35.7194 75.9691 33.2498 76.4434 31.8023 78.8108C31.8023 78.8108 37.574 86.9797 44.7944 96.1515C44.7944 96.1515 46.6978 95.3263 48.1006 93.7438C48.1006 93.7438 41.837 85.1976 35.7194 75.9691Z" fill="#ffffff" fill-rule="nonzero" opacity="1" stroke="#021df3" stroke-linecap="butt" stroke-linejoin="round" stroke-width="2.38025"/>
<path d="M44.3851 87.0018C44.3851 87.0018 42.0725 89.1383 40.0459 89.7832" fill="#ffffff" fill-rule="nonzero" opacity="1" stroke="#021df3" stroke-linecap="butt" stroke-linejoin="round" stroke-width="2.38025"/>
</g>
<path d="M62.3797 86.3716C62.3797 86.3716 53.376 85.2884 46.0424 85.0352C46.0424 85.0352 41.0034 84.5696 40.7284 88.618C40.7284 88.618 39.759 95.979 42.9601 100.382" fill="#ffffff" fill-rule="nonzero" opacity="1" stroke="#021df3" stroke-linecap="butt" stroke-linejoin="round" stroke-width="2.38025"/>
<g opacity="1">
<path d="M21.0629 47.9093C21.0629 47.9093 18.6612 47.1636 16.2687 48.5693C16.2687 48.5693 17.5088 58.4943 19.5539 69.9867C19.5539 69.9867 21.6215 70.156 23.6046 69.4215C23.6046 69.4215 22.1086 58.9319 21.0629 47.9093Z" fill="#ffffff" fill-rule="nonzero" opacity="1" stroke="#021df3" stroke-linecap="butt" stroke-linejoin="round" stroke-width="2.38025"/>
<path d="M23.3934 61.6952C23.3934 61.6952 20.4869 62.6442 18.3956 62.2578" fill="#ffffff" fill-rule="nonzero" opacity="1" stroke="#021df3" stroke-linecap="butt" stroke-linejoin="round" stroke-width="2.38025"/>
</g>
<path d="M92.6618 85.4579C92.6618 85.4579 77.2311 91.9274 54.1348 85.0947C54.1348 85.0947 28.3041 77.9571 28.3283 64.2706C28.3283 64.2706 28.1158 57.6424 34.619 55.2084C34.619 55.2084 36.0001 51.0308 36.6905 48.9595C36.6905 48.9595 37.7331 44.1484 44.3535 36.1675C44.3535 36.1675 99.1884 42.1745 103.505 49.4032C103.505 49.4032 107.055 71.6468 92.6618 85.4579Z" fill="#ffffff" fill-rule="nonzero" opacity="1" stroke="#021df3" stroke-linecap="butt" stroke-linejoin="round" stroke-width="2.38025"/>
<path d="M87.2146 58.1673C87.2146 58.1673 76.5116 57.6226 67.3351 61.142C67.3351 61.142 78.0089 68.49 82.3028 74.2045L85.4433 71.3411C85.4433 71.3411 79.947 65.4483 73.0227 62.3137C73.0227 62.3137 81.3656 61.4923 88.4659 63.1735L87.2146 58.1673Z" fill="#021df3" fill-rule="nonzero" opacity="1" stroke="none"/>
<path d="M103.702 47.9207C78.1306 30.8627 47.6934 27.1054 47.6934 27.1054C48.2011 25.9422 48.9701 25.085 48.9701 25.085C48.0436 24.3704 44.4401 23.6377 44.4401 23.6377C30.1699 21.0106 27.9939 32.1062 27.9939 32.1062C25.0733 44.9297 36.765 49.0589 36.765 49.0589C38.7716 43.1982 41.1556 40.3047 41.1556 40.3047C43.3163 41.1931 45.0379 39.7876 45.0379 39.7876C45.0379 39.7876 46.5831 41.7394 50.3219 42.9951C50.3219 42.9951 57.0143 44.3857 57.4644 41.7645C57.4644 41.7645 58.6001 44.8412 62.791 46.5297C62.791 46.5297 67.6286 48.1845 69.647 47.247C69.647 47.247 72.8493 52.265 82.0093 50.6992C82.0093 50.6992 83.9827 56.594 96.1075 55.2275L96.7292 62.2822C96.7292 62.2822 100.657 68.2608 101.454 71.2525L104.013 66.0085" fill="#021df3" fill-rule="nonzero" opacity="1" stroke="#021df3" stroke-linecap="butt" stroke-linejoin="round" stroke-width="2.38025"/>
<path d="M41.3276 45.7191" fill="none" opacity="1" stroke="#021df3" stroke-linecap="butt" stroke-linejoin="round" stroke-width="2.38025"/>
<path d="M78.3303 15.1942C78.3303 15.1942 59.7552 7.53825 49.1543 19.2489L54.9479 25.0501L99.62 41.1906C99.62 41.1906 96.2087 26.1447 78.3303 15.1942Z" fill="#021df3" fill-rule="nonzero" opacity="1" stroke="#021df3" stroke-linecap="butt" stroke-linejoin="round" stroke-width="2.38025"/>
<path d="M39.1039 49.8094C38.819 52.1708 40.2313 54.8269 40.2313 54.8269C40.2313 54.8269 41.6659 46.1871 50.1814 48.4172C50.1814 48.4172 56.7871 51.8888 57.179 58.8476C57.179 58.8476 60.5784 48.175 50.6686 45.0743C45.5406 43.1596 39.3888 47.448 39.1039 49.8094Z" fill="#021df3" fill-rule="nonzero" opacity="1" stroke="none"/>
<path d="M81.9643 50.6914C81.9643 50.6914 76.6024 46.7039 74.6287 40.2485" fill="none" opacity="1" stroke="#021df3" stroke-linecap="round" stroke-linejoin="round" stroke-width="2.38025"/>
<path d="M54.5259 85.4807C54.5259 85.4807 59.1752 91.7476 56.0859 101.057C56.0859 101.057 77.845 103.776 92.9655 85.6186C92.9655 85.6186 78.6312 91.5097 54.5259 85.4807Z" fill="#ffffff" fill-rule="nonzero" opacity="1" stroke="#021df3" stroke-linecap="butt" stroke-linejoin="round" stroke-width="2.38025"/>
<path d="M65.013 36.4781C65.013 36.4781 62.6699 41.0975 69.5374 47.3046" fill="none" opacity="1" stroke="#021df3" stroke-linecap="round" stroke-linejoin="round" stroke-width="2.38025"/>
<path d="M55.8365 33.5381C55.8365 33.5381 53.7607 36.7114 56.6704 42.1861" fill="none" opacity="1" stroke="#021df3" stroke-linecap="round" stroke-linejoin="round" stroke-width="2.38025"/>
<path d="M100.362 36.918C100.362 36.918 76.1083 22.0121 49.1924 19.3594C49.1924 19.3594 45.9283 22.2784 43.9731 26.7705C43.9731 26.7705 72.5231 30.2663 103.629 48.8367C103.629 48.8367 103.228 41.3544 100.362 36.918Z" fill="#ffffff" fill-rule="nonzero" opacity="1" stroke="#021df3" stroke-linecap="butt" stroke-linejoin="round" stroke-width="2.38025"/>
<path d="M69.1687 72.8938C69.1687 72.8938 72.9499 84.5337 56.1032 79.0128C56.1032 79.0128 44.2345 74.3357 52.4674 67.2827C52.4674 67.2827 58.345 71.1105 69.1687 72.8938Z" fill="#ff00a5" fill-rule="nonzero" opacity="1" stroke="#021df3" stroke-linecap="butt" stroke-linejoin="round" stroke-width="2.38025"/>
<path d="M32.843 74.1005C32.843 74.1005 32.1744 77.2801 31.2089 78.4744" fill="none" opacity="1" stroke="#021df3" stroke-linecap="butt" stroke-linejoin="round" stroke-width="2.38025"/>
<path d="M45.4945 40.123C45.4945 40.123 41.7078 36.7371 43.7399 31.7984" fill="none" opacity="1" stroke="#021df3" stroke-linecap="round" stroke-linejoin="round" stroke-width="2.38025"/>
<g opacity="1">
<path d="M37.7188 29.6875C34.4455 32.0101 33.1039 36.9646 35.6562 40.2812C37.7018 42.9393 41.4632 43.7905 44.6562 43.5C45.2484 43.447 45.678 42.9359 45.625 42.3438C45.572 41.7516 45.0609 41.2908 44.4688 41.3438C42.0645 41.5481 38.4564 41.1685 36.7188 39.375C35.7059 38.3295 35.2995 36.9297 35.25 35.5C35.1753 33.3417 36.0798 31.125 37.7188 29.6875Z" fill="#ffffff" stroke="none"/>
</g>
<g opacity="1">
<path d="M60.9062 35C56.9802 36.086 54.5122 40.7952 56.125 44.5938C57.2577 47.2615 59.8446 49.1053 62.5625 49.9062C63.1325 50.0754 63.7372 49.7575 63.9062 49.1875C64.0754 48.6175 63.7575 48.0129 63.1875 47.8438C61.1306 47.2253 58.4939 45.8335 57.375 43.9688C55.4437 40.7501 57.5912 36.3499 60.9062 35Z" fill="#ffffff" stroke="none"/>
</g>
<g opacity="1">
<path d="M85.0312 43.1875C81.1052 44.2735 78.6371 48.9827 80.25 52.7812C81.3827 55.449 83.9696 57.3241 86.6875 58.125C87.2575 58.2941 87.8621 57.945 88.0312 57.375C88.2004 56.805 87.8825 56.2316 87.3125 56.0625C85.2556 55.4441 82.6189 54.021 81.5 52.1562C79.5687 48.9376 81.7162 44.5374 85.0312 43.1875Z" fill="#ffffff" stroke="none"/>
</g>
<path d="M56.352 56.7416C56.352 56.7416 55.7536 64.9728 47.6482 62.3651C47.6482 62.3651 41.3717 60.8005 45.1424 52.122C45.1424 52.122 46.8259 47.4559 52.6189 48.4752C52.6189 48.4752 56.1226 47.5849 56.352 56.7416Z" fill="#021df3" fill-rule="nonzero" opacity="1" stroke="#021df3" stroke-linecap="butt" stroke-linejoin="round" stroke-width="2.38025"/>
</g>
</g>
</g>
<path d="M52.048 50.3066C51.8931 54.3359 52.3111 55.1837 54.141 57.257C51.3534 57.0285 50.1332 57.7015 47.6729 61.0722C48.4812 56.9474 47.7699 55.585 45.689 53.8534C48.4946 53.6935 49.9004 53.4681 52.048 50.3066Z" fill="#ffffff" fill-rule="nonzero" opacity="1" stroke="none"/>
</g>
</g>
<path d="M215.822 30.3847L215.822 21.5902C215.822 20.4093 214.865 19.4519 213.684 19.4519L207.092 19.4519C205.911 19.4519 204.954 20.4093 204.954 21.5902L204.954 57.9578C204.954 59.1388 205.911 60.0961 207.092 60.0961L213.684 60.0961C214.865 60.0961 215.822 59.1388 215.822 57.9578L215.822 40.9316L220.115 40.9316C221.296 40.9316 222.253 39.9742 222.253 38.7933L222.253 32.523C222.253 31.3421 221.296 30.3847 220.115 30.3847L215.822 30.3847ZM197.944 28.9056L197.944 23.6192C197.944 21.6729 196.366 20.095 194.42 20.095L165.21 20.095L165.21 29.4843L186.882 29.4843L186.882 30.7062C186.882 38.1019 178.008 42.7323 165.21 42.8609L165.21 52.4432C184.053 52.4432 197.944 44.8545 197.944 28.9056ZM178.393 55.3371L167.332 55.3371L167.332 61.0479C167.332 68.4072 173.298 74.373 180.657 74.373L213.344 74.373C215.139 74.373 216.594 72.9179 216.594 71.1228L216.594 67.8481C216.594 66.053 215.139 64.5979 213.344 64.5979L182.098 64.5979C180.052 64.5979 178.393 62.9394 178.393 60.8936L178.393 55.3371Z" fill="#ffffff" fill-rule="nonzero" opacity="1" stroke="none"/>
<path d="M277.515 39.5168L273.223 39.5168L273.223 21.5902C273.223 20.4093 272.265 19.4519 271.084 19.4519L264.493 19.4519C263.312 19.4519 262.354 20.4093 262.354 21.5902L262.354 72.2347C262.354 73.4157 263.312 74.373 264.493 74.373L271.084 74.373C272.265 74.373 273.223 73.4157 273.223 72.2347L273.223 50.0637L277.515 50.0637C278.696 50.0637 279.654 49.1063 279.654 47.9254L279.654 41.6551C279.654 40.4741 278.696 39.5168 277.515 39.5168Z" fill="#ffffff" fill-rule="nonzero" opacity="1" stroke="none"/>
<path d="M326.576 19.4519L323.316 19.4519C321.215 19.4519 319.512 21.155 319.512 23.2559L319.512 70.5691C319.512 72.6699 321.215 74.373 323.316 74.373L326.576 74.373C328.677 74.373 330.38 72.6699 330.38 70.5691L330.38 23.2559C330.38 21.155 328.677 19.4519 326.576 19.4519Z" fill="#ffffff" fill-rule="nonzero" opacity="1" stroke="none"/>
<path d="M366.058 40.9959L366.058 38.4878L383.15 38.4878C384.579 38.4878 385.737 37.3294 385.737 35.9004L385.737 33.2936C385.737 31.8646 384.579 30.7062 383.15 30.7062L347.023 30.7062L347.023 27.2335L382.507 27.2335C383.936 27.2335 385.094 26.0751 385.094 24.6461L385.094 22.0393C385.094 20.6103 383.936 19.4519 382.507 19.4519L338.806 19.4519C337.377 19.4519 336.218 20.6103 336.218 22.0393L336.218 35.9004C336.218 37.3294 337.377 38.4878 338.806 38.4878L355.254 38.4878L355.254 40.9959L335.462 40.9959C334.033 40.9959 332.874 42.1543 332.874 43.5833L332.874 46.3187C332.874 47.7477 334.033 48.9061 335.462 48.9061L385.851 48.9061C387.28 48.9061 388.438 47.7477 388.438 46.3187L388.438 43.5833C388.438 42.1543 387.28 40.9959 385.851 40.9959L366.058 40.9959ZM346.765 65.4982L382.956 65.4982C384.208 65.4982 385.223 64.4834 385.223 63.2316L385.223 53.2307C385.223 51.9788 384.208 50.964 382.956 50.964L338.292 50.964C337.04 50.964 336.025 51.9788 336.025 53.2307L336.025 55.5143C336.025 56.7661 337.04 57.7809 338.292 57.7809L374.612 57.7809L374.612 59.7746L338.421 59.7746C337.169 59.7746 336.154 60.7894 336.154 62.0412L336.154 72.1064C336.154 73.3582 337.169 74.373 338.421 74.373L383.535 74.373C384.787 74.373 385.802 73.3582 385.802 72.1064L385.802 69.7584C385.802 68.5066 384.787 67.4918 383.535 67.4918L346.765 67.4918L346.765 65.4982Z" fill="#ffffff" fill-rule="nonzero" opacity="1" stroke="none"/>
<g opacity="1">
<mask height="53.1647" id="StrokeMask" maskUnits="userSpaceOnUse" width="34.5631" x="225.128" y="20.3233">
<rect fill="#000000" height="53.1647" stroke="none" width="34.5631" x="225.128" y="20.3233"/>
<use fill="#ffffff" fill-rule="evenodd" stroke="none" xlink:href="#Fill"/>
</mask>
<use fill="none" mask="url(#StrokeMask)" stroke="#ffffff" stroke-linecap="butt" stroke-linejoin="round" stroke-width="22.33" xlink:href="#Fill"/>
</g>
<g opacity="1">
<mask height="53.1647" id="StrokeMask_2" maskUnits="userSpaceOnUse" width="34.5631" x="282.294" y="20.3233">
<rect fill="#000000" height="53.1647" stroke="none" width="34.5631" x="282.294" y="20.3233"/>
<use fill="#ffffff" fill-rule="evenodd" stroke="none" xlink:href="#Fill_2"/>
</mask>
<use fill="none" mask="url(#StrokeMask_2)" stroke="#ffffff" stroke-linecap="butt" stroke-linejoin="round" stroke-width="22.33" xlink:href="#Fill_2"/>
</g>
<g fill="#ffffff" opacity="1" stroke="none">
<path d="M234.029 85.0009L232.871 85.0009L231.701 87.3109L230.525 85.0009L229.277 85.0009L231.107 88.3549L231.107 89.8909L232.199 89.8909L232.199 88.3549L234.029 85.0009Z" fill="#ffffff"/>
<path d="M243.539 89.8909L247.229 89.8909L247.229 88.9429L244.631 88.9429L244.631 87.8929L246.965 87.8929L246.965 86.9449L244.631 86.9449L244.631 85.9489L247.175 85.9489L247.175 85.0009L243.539 85.0009L243.539 89.8909Z" fill="#ffffff"/>
<path d="M259.313 90.0109C260.831 90.0109 261.953 88.9249 261.953 87.4429C261.953 85.9609 260.831 84.8749 259.313 84.8749C257.795 84.8749 256.673 85.9609 256.673 87.4429C256.673 88.9249 257.795 90.0109 259.313 90.0109ZM259.313 89.0269C258.425 89.0269 257.765 88.3609 257.765 87.4429C257.765 86.5189 258.425 85.8589 259.313 85.8589C260.201 85.8589 260.861 86.5189 260.861 87.4429C260.861 88.3609 260.201 89.0269 259.313 89.0269Z" fill="#ffffff"/>
<path d="M271.601 89.8909L272.693 89.8909L272.693 86.8909L275.135 89.8309L276.047 89.8309L276.047 84.9409L274.955 84.9409L274.955 87.9409L272.513 85.0009L271.601 85.0009L271.601 89.8909Z" fill="#ffffff"/>
<path d="M288.311 84.8749C286.805 84.8749 285.695 85.9609 285.695 87.4429C285.695 88.9249 286.805 90.0109 288.311 90.0109C289.793 90.0109 290.903 88.9249 290.903 87.4429L290.903 87.1549L288.245 87.1549L288.245 88.0789L289.739 88.0789C289.625 88.5589 289.097 89.0269 288.335 89.0269C287.447 89.0269 286.787 88.3609 286.787 87.4429C286.787 86.5309 287.447 85.8769 288.335 85.8769C288.929 85.8769 289.391 86.1529 289.595 86.5129L290.795 86.5129C290.513 85.5949 289.589 84.8749 288.311 84.8749Z" fill="#ffffff"/>
<path d="M303.647 89.8909L304.865 89.8909L302.969 85.0009L301.835 85.0009L299.939 89.8909L301.067 89.8909L301.409 88.9429L303.305 88.9429L303.647 89.8909ZM301.745 87.9949L302.357 86.2909L302.969 87.9949L301.745 87.9949Z" fill="#ffffff"/>
<path d="M314.357 89.8909L315.449 89.8909L315.449 86.8909L317.891 89.8309L318.803 89.8309L318.803 84.9409L317.711 84.9409L317.711 87.9409L315.269 85.0009L314.357 85.0009L314.357 89.8909Z" fill="#ffffff"/>
<path d="M339.347 85.0009L339.347 89.8909L340.439 89.8909L340.439 85.0009L339.347 85.0009Z" fill="#ffffff"/>
<path d="M350.303 89.8909L352.199 89.8909C353.819 89.8909 354.821 88.8949 354.821 87.4489C354.821 86.0029 353.819 85.0009 352.199 85.0009L350.303 85.0009L350.303 89.8909ZM351.395 88.9249L351.395 85.9669L352.217 85.9669C353.153 85.9669 353.729 86.5069 353.729 87.4489C353.729 88.3909 353.153 88.9249 352.217 88.9249L351.395 88.9249Z" fill="#ffffff"/>
<path d="M366.899 90.0109C368.417 90.0109 369.539 88.9249 369.539 87.4429C369.539 85.9609 368.417 84.8749 366.899 84.8749C365.381 84.8749 364.259 85.9609 364.259 87.4429C364.259 88.9249 365.381 90.0109 366.899 90.0109ZM366.899 89.0269C366.011 89.0269 365.351 88.3609 365.351 87.4429C365.351 86.5189 366.011 85.8589 366.899 85.8589C367.787 85.8589 368.447 86.5189 368.447 87.4429C368.447 88.3609 367.787 89.0269 366.899 89.0269Z" fill="#ffffff"/>
<path d="M379.187 85.0009L379.187 89.8909L382.721 89.8909L382.721 88.9249L380.279 88.9249L380.279 85.0009L379.187 85.0009Z" fill="#ffffff"/>
</g>
<path d="M112.214 86.1422L215.999 86.1422L215.999 90.3509L112.214 90.3509L112.214 86.1422Z" fill="#ffffff" fill-rule="nonzero" opacity="1" stroke="none"/>
<path d="M152.461 19.4462C151.349 19.4462 150.43 20.3651 150.43 21.4774L150.43 23.6962L143.742 23.6962L144.399 33.2899L150.43 33.2899L150.43 38.4774L144.399 38.4774L143.742 48.0712L150.43 48.0712L150.43 56.6024C150.43 58.5628 152.032 60.165 153.992 60.1649L157.555 60.1649C159.515 60.1649 161.117 58.5629 161.117 56.6024L161.117 21.4774C161.117 20.3651 160.198 19.4461 159.086 19.4462L152.461 19.4462ZM125.024 19.5087C114.477 19.5087 107.367 26.0736 107.367 35.9774C107.367 45.9455 114.477 52.4462 125.024 52.4462C135.57 52.4462 142.711 45.9455 142.711 35.9774C142.711 26.0736 135.571 19.5087 125.024 19.5087ZM125.242 20.5399C125.393 25.9148 127.24 29.656 130.149 32.0399C132.793 34.2075 136.327 35.2439 140.305 35.3524C131.737 35.5805 125.242 40.2146 125.242 51.0087C125.242 40.2146 118.707 35.6743 110.211 35.4462C118.491 35.2181 124.882 30.8019 125.242 20.5399ZM112.617 55.1337L112.617 60.9149C112.617 68.3488 118.652 74.3837 126.086 74.3837L158.649 74.3837C160.432 74.3837 161.899 72.9169 161.899 71.1337L161.899 67.8837C161.899 66.1004 160.432 64.6651 158.649 64.6649L127.492 64.6649C125.39 64.6649 123.68 62.955 123.68 60.8524L123.68 55.1337L112.617 55.1337Z" fill="#ffffff" fill-rule="nonzero" opacity="1" stroke="none"/>
</g>
</g>
</svg>
